<svg width="128" height="128" viewBox="0 0 128 128" fill="none" xmlns="http://www.w3.org/2000/svg">
<rect width="128" height="128" rx="24" fill="#F9F8F5"/>
<path d="M20 20H107V107H20V20Z" fill="white"/>
<path d="M20 20H41V23H20V20ZM44 20H50V23H44V20ZM56 20H68V23H56V20ZM71 20H83V23H71V20ZM86 20H107V23H86V20ZM20 23H23V26H20V23ZM38 23H41V26H38V23ZM44 23H47V26H44V23ZM50 23H53V26H50V23ZM56 23H62V26H56V23ZM68 23H71V26H68V23ZM80 23H83V26H80V23ZM86 23H89V26H86V23ZM104 23H107V26H104V23ZM20 26H23V29H20V26ZM26 26H35V29H26V26ZM38 26H41V29H38V26ZM50 26H53V29H50V26ZM56 26H59V29H56V26ZM68 26H71V29H68V26ZM74 26H77V29H74V26ZM80 26H83V29H80V26ZM86 26H89V29H86V26ZM92 26H101V29H92V26ZM104 26H107V29H104V26ZM20 29H23V32H20V29ZM26 29H35V32H26V29ZM38 29H41V32H38V29ZM44 29H47V32H44V29ZM53 29H59V32H53V29ZM62 29H68V32H62V29ZM71 29H80V32H71V29ZM86 29H89V32H86V29ZM92 29H101V32H92V29ZM104 29H107V32H104V29ZM20 32H23V35H20V32ZM26 32H35V35H26V32ZM38 32H41V35H38V32ZM62 32H65V35H62V32ZM68 32H71V35H68V32ZM77 32H80V35H77V32ZM86 32H89V35H86V32ZM92 32H101V35H92V32ZM104 32H107V35H104V32ZM20 35H23V38H20V35ZM38 35H41V38H38V35ZM47 35H53V38H47V35ZM59 35H62V38H59V35ZM65 35H83V38H65V35ZM86 35H89V38H86V35ZM104 35H107V38H104V35ZM20 38H41V41H20V38ZM44 38H47V41H44V38ZM50 38H53V41H50V38ZM56 38H59V41H56V38ZM62 38H65V41H62V38ZM68 38H71V41H68V38ZM74 38H77V41H74V38ZM80 38H83V41H80V38ZM86 38H107V41H86V38ZM44 41H50V44H44V41ZM53 41H56V44H53V41ZM65 41H77V44H65V41ZM80 41H83V44H80V41ZM20 44H23V47H20V44ZM26 44H32V47H26V44ZM35 44H44V47H35V44ZM50 44H56V47H50V44ZM59 44H62V47H59V44ZM65 44H68V47H65V44ZM71 44H77V47H71V44ZM86 44H89V47H86V44ZM95 44H98V47H95V44ZM101 44H107V47H101V44ZM26 47H32V50H26V47ZM35 47H38V50H35V47ZM41 47H50V50H41V47ZM56 47H68V50H56V47ZM74 47H95V50H74V47ZM104 47H107V50H104V47ZM29 50H44V53H29V50ZM53 50H62V53H53V50ZM68 50H77V53H68V50ZM80 50H86V53H80V50ZM89 50H95V53H89V50ZM98 50H104V53H98V50ZM29 53H32V56H29V53ZM35 53H38V56H35V53ZM41 53H44V56H41V53ZM53 53H59V56H53V53ZM68 53H71V56H68V53ZM77 53H89V56H77V53ZM104 53H107V56H104V53ZM20 56H29V59H20V56ZM35 56H41V59H35V56ZM47 56H50V59H47V56ZM53 56H56V59H53V56ZM62 56H68V59H62V56ZM71 56H74V59H71V56ZM77 56H80V59H77V56ZM89 56H92V59H89V56ZM95 56H101V59H95V56ZM26 59H32V62H26V59ZM47 59H50V62H47V59ZM53 59H56V62H53V59ZM62 59H65V62H62V59ZM68 59H80V62H68V59ZM83 59H89V62H83V59ZM98 59H107V62H98V59ZM20 62H23V65H20V62ZM26 62H29V65H26V62ZM32 62H47V65H32V62ZM59 62H62V65H59V62ZM65 62H80V65H65V62ZM86 62H92V65H86V62ZM98 62H107V65H98V62ZM23 65H32V68H23V65ZM44 65H47V68H44V65ZM50 65H53V68H50V65ZM62 65H65V68H62V65ZM68 65H71V68H68V65ZM77 65H83V68H77V65ZM86 65H89V68H86V65ZM92 65H95V68H92V65ZM101 65H104V68H101V65ZM38 68H50V71H38V68ZM56 68H59V71H56V68ZM62 68H71V71H62V68ZM74 68H83V71H74V68ZM89 68H98V71H89V68ZM101 68H104V71H101V68ZM26 71H29V74H26V71ZM32 71H38V74H32V71ZM50 71H53V74H50V71ZM56 71H59V74H56V71ZM62 71H65V74H62V71ZM68 71H74V74H68V71ZM89 71H92V74H89V71ZM95 71H104V74H95V71ZM20 74H23V77H20V74ZM26 74H32V77H26V74ZM38 74H47V77H38V74ZM53 74H71V77H53V74ZM86 74H89V77H86V74ZM92 74H95V77H92V74ZM98 74H101V77H98V74ZM26 77H29V80H26V77ZM44 77H47V80H44V77ZM50 77H53V80H50V77ZM59 77H65V80H59V77ZM71 77H74V80H71V77ZM80 77H83V80H80V77ZM86 77H95V80H86V77ZM98 77H101V80H98V77ZM23 80H26V83H23V80ZM29 80H35V83H29V80ZM38 80H47V83H38V80ZM50 80H56V83H50V80ZM59 80H65V83H59V80ZM68 80H101V83H68V80ZM44 83H50V86H44V83ZM53 83H59V86H53V83ZM65 83H71V86H65V83ZM77 83H83V86H77V83ZM92 83H107V86H92V83ZM20 86H41V89H20V86ZM44 86H50V89H44V86ZM62 86H68V89H62V86ZM74 86H83V89H74V86ZM86 86H89V89H86V86ZM92 86H98V89H92V86ZM101 86H104V89H101V86ZM20 89H23V92H20V89ZM38 89H41V92H38V89ZM44 89H53V92H44V89ZM59 89H68V92H59V89ZM74 89H77V92H74V89ZM80 89H83V92H80V89ZM92 89H98V92H92V89ZM20 92H23V95H20V92ZM26 92H35V95H26V92ZM38 92H41V95H38V92ZM53 92H59V95H53V92ZM71 92H74V95H71V92ZM80 92H95V95H80V92ZM98 92H101V95H98V92ZM104 92H107V95H104V92ZM20 95H23V98H20V95ZM26 95H35V98H26V95ZM38 95H41V98H38V95ZM44 95H53V98H44V95ZM59 95H62V98H59V95ZM71 95H77V98H71V95ZM80 95H86V98H80V95ZM89 95H98V98H89V95ZM101 95H104V98H101V95ZM20 98H23V101H20V98ZM26 98H35V101H26V98ZM38 98H41V101H38V98ZM44 98H50V101H44V98ZM53 98H59V101H53V98ZM71 98H74V101H71V98ZM77 98H80V101H77V98ZM89 98H92V101H89V98ZM98 98H101V101H98V98ZM104 98H107V101H104V98ZM20 101H23V104H20V101ZM38 101H41V104H38V101ZM56 101H68V104H56V101ZM77 101H86V104H77V101ZM89 101H92V104H89V101ZM95 101H98V104H95V101ZM101 101H104V104H101V101ZM20 104H41V107H20V104ZM44 104H50V107H44V104ZM56 104H65V107H56V104ZM68 104H71V107H68V104ZM77 104H86V107H77V104ZM89 104H92V107H89V104ZM95 104H98V107H95V104ZM101 104H104V107H101V104Z" fill="black"/>
</svg>
